<?xml version="1.0" encoding="utf-8"?>
<!-- Generator: Adobe Illustrator 25.3.1, SVG Export Plug-In . SVG Version: 6.00 Build 0)  -->
<svg version="1.1" id="Logo" xmlns="http://www.w3.org/2000/svg" xmlns:xlink="http://www.w3.org/1999/xlink" x="0px" y="0px"
	 width="578.3px" height="207.1px" viewBox="0 0 578.3 207.1" style="enable-background:new 0 0 578.3 207.1;" xml:space="preserve"
	>
<style type="text/css">
	.st0{fill:#FFFFFF;}
	.st1{fill:#FF0001;}
	.st2{clip-path:url(#SVGID_2_);fill:#FF0001;}
	.st3{clip-path:url(#SVGID_2_);fill:#FFFFFF;}
</style>
<rect x="324.4" y="14.3" class="st0" width="2.4" height="178.5"/>
<g>
	<g>
		<path class="st1" d="M368,33.5V14.4h-20.6c0,6.7,0.5,13.1,1.4,19.2H368z"/>
		<path class="st1" d="M368,39.5h-18c3.5,16.4,10.1,28.5,18,31.1V39.5z"/>
	</g>
	<g>
		<path class="st1" d="M374,33.5V14.4h20.6c0,6.7-0.5,13.1-1.4,19.2H374z"/>
		<path class="st1" d="M374,39.5h18c-3.5,16.4-10.1,28.5-18,31.1V39.5z"/>
	</g>
</g>
<g>
	<path class="st0" d="M415.1,36.5V14.4h13.4v3.8h-9.1v5.7h7.2v3.8h-7.2v8.8H415.1z"/>
	<path class="st0" d="M437.2,36.9c-2.2,0-3.9-0.6-5.2-1.9c-1.2-1.3-1.8-3.1-1.8-5.4v-8h4.1v8c0,1.1,0.3,2,0.8,2.6
		c0.5,0.6,1.2,0.9,2.1,0.9c0.9,0,1.6-0.3,2.1-0.9c0.5-0.6,0.8-1.5,0.8-2.6v-8h4.1v8c0,2.3-0.6,4.1-1.8,5.4
		C441.1,36.3,439.4,36.9,437.2,36.9z M433.6,19.4c-0.8,0-1.3-0.2-1.8-0.7c-0.4-0.4-0.7-1-0.7-1.7s0.2-1.3,0.7-1.7
		c0.4-0.4,1-0.7,1.8-0.7c0.7,0,1.3,0.2,1.8,0.7c0.4,0.4,0.7,1,0.7,1.7s-0.2,1.3-0.7,1.7C434.9,19.2,434.3,19.4,433.6,19.4z
		 M440.8,19.4c-0.8,0-1.3-0.2-1.8-0.7c-0.4-0.4-0.7-1-0.7-1.7s0.2-1.3,0.7-1.7c0.4-0.4,1-0.7,1.8-0.7c0.7,0,1.3,0.2,1.8,0.7
		c0.4,0.4,0.7,1,0.7,1.7s-0.2,1.3-0.7,1.7C442.1,19.2,441.5,19.4,440.8,19.4z"/>
	<path class="st0" d="M447.8,36.5V21.7h3.8v2.7h0.2c0.3-1,0.9-1.7,1.6-2.3c0.7-0.5,1.6-0.8,2.6-0.8c0.6,0,1.1,0.1,1.5,0.4v4.1h-0.2
		c-0.3-0.1-0.5-0.2-0.9-0.3c-0.3-0.1-0.6-0.1-0.9-0.1c-1.1,0-2,0.4-2.6,1.2c-0.6,0.8-0.9,1.9-0.9,3.2v6.7H447.8z"/>
	<path class="st0" d="M477.2,36.5v-2.2H477c-0.4,0.8-1.1,1.4-1.9,1.9c-0.9,0.5-1.8,0.7-2.9,0.7c-1.3,0-2.5-0.3-3.5-1
		c-1-0.7-1.8-1.6-2.3-2.7s-0.8-2.5-0.8-4.1s0.3-2.9,0.8-4.1c0.5-1.2,1.3-2.1,2.3-2.7c1-0.7,2.2-1,3.5-1c1,0,1.9,0.2,2.8,0.6
		c0.8,0.4,1.5,1,1.9,1.6h0.2v-9.2h4.1v22.2H477.2z M473.5,33.3c1.1,0,2-0.4,2.7-1.2c0.7-0.8,1-1.8,1-3.1c0-1.3-0.3-2.3-1-3.1
		c-0.7-0.8-1.6-1.1-2.7-1.1c-1.1,0-2,0.4-2.7,1.1c-0.7,0.8-1,1.8-1,3.1c0,1.3,0.3,2.3,1,3.1C471.4,32.9,472.3,33.3,473.5,33.3z"/>
	<path class="st0" d="M487.1,19.3c-0.8,0-1.4-0.2-1.9-0.7s-0.7-1.1-0.7-1.8c0-0.8,0.2-1.4,0.7-1.8s1.1-0.7,1.9-0.7
		c0.8,0,1.5,0.2,1.9,0.7s0.7,1.1,0.7,1.8c0,0.7-0.2,1.3-0.7,1.8S487.9,19.3,487.1,19.3z M485,36.5V21.7h4.1v14.9H485z"/>
	<path class="st0" d="M500,36.9c-1.6,0-3-0.3-4.2-0.9s-2.1-1.5-2.7-2.7c-0.6-1.2-0.9-2.5-0.9-4.1c0-1.6,0.3-3,1-4.2
		c0.7-1.2,1.6-2.1,2.7-2.7c1.2-0.6,2.5-0.9,4-0.9c2.2,0,3.9,0.7,5.1,2c1.2,1.3,1.8,3.2,1.8,5.6v0.9L496.6,31
		c0.3,0.9,0.8,1.5,1.5,1.9c0.7,0.4,1.6,0.6,2.6,0.6c1,0,1.9-0.1,2.9-0.4c1-0.3,1.7-0.5,2.2-0.9h0.2l-0.6,3.6
		c-0.6,0.3-1.3,0.6-2.3,0.8S501.1,36.9,500,36.9z M499.8,24.6c-0.9,0-1.7,0.3-2.3,0.8c-0.6,0.6-1,1.4-1.1,2.5l6.3-0.7
		c-0.1-0.9-0.5-1.6-1-2C501.2,24.8,500.6,24.6,499.8,24.6z"/>
	<path class="st0" d="M420.4,70.4c-1.1,0-2.2-0.2-3.2-0.5s-2-0.8-3-1.4l0.6-3.8h0.1c0.9,0.7,1.9,1.2,2.8,1.5
		c0.9,0.3,1.8,0.4,2.6,0.4c2.3,0,3.4-0.8,3.4-2.5c0-0.6-0.2-1.1-0.5-1.6c-0.3-0.5-0.9-0.9-1.7-1.4l-2.8-1.5
		c-1.6-0.9-2.7-1.8-3.4-2.8c-0.7-1-1-2.1-1-3.4c0-1.9,0.6-3.4,1.9-4.5c1.3-1.1,3-1.7,5.1-1.7c2,0,3.8,0.5,5.4,1.5l-0.6,3.7h-0.1
		c-0.6-0.4-1.4-0.8-2.2-1c-0.8-0.2-1.6-0.3-2.4-0.3c-2,0-3,0.8-3,2.3c0,0.6,0.2,1.1,0.5,1.5c0.3,0.5,1,1,2,1.5l2.4,1.3
		c1.5,0.8,2.6,1.7,3.3,2.7c0.7,1,1,2.2,1,3.6c0,2.1-0.7,3.7-2.1,4.8S422.7,70.4,420.4,70.4z"/>
	<path class="st0" d="M438.8,69.8h-4.6c-0.7-1-1.2-2.1-1.6-3.4s-0.5-2.7-0.5-4.3v-3.7h-2.6V55h2.6v-4.4h4.1V55h3.5l-0.6,3.5h-2.9
		v3.4c0,1.7,0.2,3.1,0.7,4.4c0.5,1.2,1.1,2.4,1.9,3.5V69.8z"/>
	<path class="st0" d="M445.7,70.1c-1.4,0-2.6-0.4-3.4-1.2c-0.8-0.8-1.3-1.8-1.3-3.2c0-1.4,0.5-2.5,1.5-3.3s2.3-1.3,4-1.5l4.1-0.4v0
		c0-0.8-0.2-1.4-0.7-1.8c-0.4-0.4-1.3-0.6-2.4-0.6c-0.9,0-1.8,0.1-2.7,0.3c-0.9,0.2-1.7,0.4-2.2,0.7h-0.2l0.6-3.5
		c0.6-0.3,1.4-0.5,2.3-0.7c0.9-0.2,1.9-0.3,2.9-0.3c2.2,0,3.9,0.5,4.9,1.6c1,1,1.6,2.6,1.6,4.6v4.7c0,0.8,0.1,1.5,0.2,2.3
		c0.1,0.8,0.3,1.4,0.5,1.9v0.2h-3.9c-0.1-0.3-0.2-0.7-0.3-1.1c-0.1-0.4-0.2-0.9-0.2-1.2h-0.2c-0.4,0.7-1,1.3-2,1.8
		C448.1,69.8,447,70.1,445.7,70.1z M445.2,65.4c0,0.4,0.1,0.8,0.4,1.1s0.8,0.4,1.4,0.4c1,0,1.9-0.3,2.6-0.9c0.7-0.6,1-1.4,1-2.4
		v-0.4l-3.1,0.4c-0.8,0.1-1.4,0.3-1.7,0.5S445.2,64.8,445.2,65.4z"/>
	<path class="st0" d="M469.4,69.8v-2.2h-0.2c-0.4,0.8-1.1,1.4-1.9,1.9c-0.9,0.5-1.8,0.7-2.9,0.7c-1.3,0-2.5-0.3-3.5-1
		c-1-0.7-1.8-1.6-2.3-2.7c-0.6-1.2-0.8-2.5-0.8-4.1s0.3-2.9,0.8-4.1c0.5-1.2,1.3-2.1,2.3-2.7s2.2-1,3.5-1c1,0,1.9,0.2,2.8,0.6
		s1.5,1,1.9,1.6h0.2v-9.2h4.1v22.2H469.4z M465.7,66.6c1.1,0,2-0.4,2.7-1.2s1-1.8,1-3.1c0-1.3-0.3-2.3-1-3.1
		c-0.7-0.8-1.6-1.1-2.7-1.1c-1.1,0-2,0.4-2.7,1.1c-0.7,0.8-1,1.8-1,3.1c0,1.3,0.3,2.3,1,3.1C463.6,66.2,464.5,66.6,465.7,66.6z"/>
	<path class="st0" d="M485,69.8h-4.6c-0.7-1-1.2-2.1-1.6-3.4c-0.4-1.3-0.5-2.7-0.5-4.3v-3.7h-2.6V55h2.6v-4.4h4.1V55h3.5l-0.6,3.5
		h-2.9v3.4c0,1.7,0.2,3.1,0.7,4.4c0.5,1.2,1.1,2.4,1.9,3.5V69.8z"/>
	<path class="st0" d="M503.8,69.8h-5c-0.5-1.1-1-2.5-1.6-4.1s-1.1-3.4-1.7-5.4c-0.5-2-1-4.1-1.4-6.2c-0.4-2.2-0.7-4.3-0.8-6.4h4.5
		c0.2,2,0.4,4,0.8,6.2s0.8,4.2,1.3,6.2s1,3.9,1.5,5.6h0.2l4.5-15h3.3l4.5,15h0.2c0.5-1.7,1-3.6,1.5-5.6s0.9-4.1,1.2-6.2
		c0.4-2.1,0.6-4.2,0.8-6.2h4.4c-0.2,2.1-0.4,4.3-0.8,6.4c-0.4,2.2-0.9,4.2-1.4,6.2c-0.5,2-1.1,3.8-1.7,5.4s-1.1,3-1.6,4.1h-5
		l-3.8-12.5h-0.2L503.8,69.8z"/>
	<path class="st0" d="M527.2,52.6c-0.8,0-1.4-0.2-1.9-0.7s-0.7-1.1-0.7-1.8c0-0.8,0.2-1.4,0.7-1.8s1.1-0.7,1.9-0.7
		c0.8,0,1.5,0.2,1.9,0.7s0.7,1.1,0.7,1.8c0,0.7-0.2,1.3-0.7,1.8S528,52.6,527.2,52.6z M525.1,69.8V55h4.1v14.9H525.1z"/>
	<path class="st0" d="M540.1,70.2c-1.6,0-3-0.3-4.2-0.9s-2.1-1.5-2.7-2.7c-0.6-1.2-0.9-2.5-0.9-4.1c0-1.6,0.3-3,1-4.2
		c0.7-1.2,1.6-2.1,2.7-2.7c1.2-0.6,2.5-0.9,4-0.9c2.2,0,3.9,0.7,5.1,2c1.2,1.3,1.8,3.2,1.8,5.6v0.9l-10.2,1.2
		c0.3,0.9,0.8,1.5,1.5,1.9c0.7,0.4,1.6,0.6,2.6,0.6c1,0,1.9-0.1,2.9-0.4c1-0.3,1.7-0.5,2.2-0.9h0.2l-0.6,3.6
		c-0.6,0.3-1.3,0.6-2.3,0.8S541.2,70.2,540.1,70.2z M539.9,57.9c-0.9,0-1.7,0.3-2.3,0.8c-0.6,0.6-1,1.4-1.1,2.5l6.3-0.7
		c-0.1-0.9-0.5-1.6-1-2C541.3,58.1,540.7,57.9,539.9,57.9z"/>
	<path class="st0" d="M549.8,69.8V55h3.8v2.5h0.2c0.4-0.9,1-1.6,1.8-2.1c0.9-0.5,1.9-0.8,3-0.8c1.7,0,3.1,0.6,4.1,1.7
		c1,1.2,1.5,2.8,1.5,4.8v8.7H560v-8.2c0-2.3-1-3.5-2.9-3.5c-1,0-1.7,0.3-2.3,1c-0.6,0.7-0.9,1.6-0.9,2.8v7.9H549.8z"/>
</g>
<g>
	<defs>
		<rect id="SVGID_1_" x="13.5" y="14.3" width="290.4" height="178.5"/>
	</defs>
	<clipPath id="SVGID_2_">
		<use xlink:href="#SVGID_1_"  style="overflow:visible;"/>
	</clipPath>
	<path class="st2" d="M295.3,155.9c-2.6-4.4-7.2-9.5-14-15.5c-5.4-4.8-10.3-8.4-11.2-9.1l-1.4-1l-8.1,11.1l1.4,1
		c5.6,4.1,14.4,11.4,19.2,17.3c0.5,0.7,0.6,1.4,0.6,1.8c0,0.4-0.1,1.1-0.6,1.9c-4.9,6-13.7,13.2-19.2,17.3l-1.4,1l8.1,11.1l1.4-1
		c0.2-0.2,5.4-4,11.2-9.1c6.8-6,11.4-11.1,14.1-15.5c1.8-2.6,1.9-4.5,1.9-5.6C297.2,160.5,297.1,158.6,295.3,155.9"/>
	<path class="st2" d="M258,155.9c-2.6-4.4-7.2-9.5-14-15.5c-5.4-4.8-10.3-8.4-11.2-9.1l-1.4-1l-8.1,11.1l1.4,1
		c5.6,4.1,14.4,11.4,19.2,17.3c0.5,0.7,0.6,1.4,0.6,1.8c0,0.4-0.1,1.1-0.6,1.9c-4.9,6-13.7,13.2-19.2,17.3l-1.4,1l8.1,11.1l1.4-1
		c0.2-0.2,5.4-4,11.2-9.1c6.8-6,11.4-11.1,14.1-15.5c1.8-2.6,1.9-4.5,1.9-5.6C260,160.5,259.8,158.6,258,155.9"/>
	<path class="st3" d="M284.5,120.1V70.8h13.1l3.1-18.7h-16.2v-6.8c0-7,3-10.6,9.1-10.6c2.1,0,4.2,0.5,6.2,1.5h0.9l3.2-19
		c-4.1-1.9-9.3-2.8-15.7-2.8c-8.6,0-15.3,2.7-20.3,8c-5,5.3-7.5,12.6-7.5,21.7v8h-10.8v18.7h10.8v49.2H284.5z M231.6,120.1V70.8
		h18.9l-0.1-18.7h-18.8v-6.8c0-7,3-10.6,9.1-10.6c2.1,0,4.2,0.5,6.2,1.5h0.9l3.2-19c-4.1-1.9-9.3-2.8-15.7-2.8
		c-8.6,0-15.3,2.7-20.3,8c-5,5.3-7.5,12.6-7.5,21.7v8h-12v18.7h12v49.2H231.6z M155,92.8l10.8-0.9v1.6c0,3.3-1.2,6-3.5,8.2
		c-2.3,2.1-5.4,3.2-9.1,3.2c-4.4,0-6.6-1.8-6.6-5.5C146.7,95.5,149.5,93.3,155,92.8 M158.8,118.1c4-2,6.9-4.7,8.6-8.1h0.9
		c0.3,3.7,1.1,7,2.4,10h21.7V119c-1-1.9-1.8-4.5-2.3-7.8c-0.6-3.3-0.9-6.8-0.9-10.6V79.8c0-19.5-10-29.3-30.1-29.3
		c-8.7,0-17,1.6-24.9,4.8l-3.5,19h0.9c2.6-1.5,6.1-2.7,10.4-3.7c4.4-0.9,8.5-1.4,12.4-1.4c3.9,0,6.8,0.7,8.6,2.1
		c1.8,1.4,2.7,3.6,2.7,6.8v0.7l-16.5,1.5c-16.9,1.5-25.3,8.6-25.3,21.3c0,6,1.9,10.8,5.6,14.3c3.7,3.6,8.8,5.4,15.3,5.4
		C150.2,121.1,154.7,120.1,158.8,118.1 M67.8,86.5h0.9l10.7,33.6h24.4c4.6-9.5,8.5-20.2,11.8-32.1c3.3-11.8,5.7-23.8,7.1-35.9h-24
		c-0.3,6.7-1,14-2.3,21.9c-1.3,7.9-3,15.9-5.2,24h-0.9L76.6,53.4H59.9L46.3,98h-0.9c-2.2-8.1-4-16.1-5.3-24
		c-1.3-7.9-2-15.2-2.2-21.9H13.5c1.4,12.1,3.8,24.1,7,35.9c3.3,11.8,7.2,22.5,11.8,32.1H57L67.8,86.5z"/>
</g>
</svg>
